<svg width="49" height="43" viewBox="0 0 49 43" fill="none" xmlns="http://www.w3.org/2000/svg">
<g filter="url(#filter0_d_0_1)">
<ellipse cx="24.5" cy="17.5" rx="20.5" ry="17.5" fill="url(#paint0_radial_0_1)" shape-rendering="crispEdges"/>
<path d="M44.5 17.5C44.5 26.8176 35.6228 34.5 24.5 34.5C13.3772 34.5 4.5 26.8176 4.5 17.5C4.5 8.18244 13.3772 0.5 24.5 0.5C35.6228 0.5 44.5 8.18244 44.5 17.5Z" stroke="black" shape-rendering="crispEdges"/>
</g>
<g filter="url(#filter1_d_0_1)">
<ellipse cx="24.5" cy="17.5" rx="20.5" ry="17.5" fill="url(#paint1_radial_0_1)" shape-rendering="crispEdges"/>
<path d="M44.5 17.5C44.5 26.8176 35.6228 34.5 24.5 34.5C13.3772 34.5 4.5 26.8176 4.5 17.5C4.5 8.18244 13.3772 0.5 24.5 0.5C35.6228 0.5 44.5 8.18244 44.5 17.5Z" stroke="black" shape-rendering="crispEdges"/>
</g>
<g filter="url(#filter2_d_0_1)">
<ellipse cx="24.5" cy="17.5" rx="20.5" ry="17.5" fill="url(#paint2_radial_0_1)" shape-rendering="crispEdges"/>
<path d="M44.5 17.5C44.5 26.8176 35.6228 34.5 24.5 34.5C13.3772 34.5 4.5 26.8176 4.5 17.5C4.5 8.18244 13.3772 0.5 24.5 0.5C35.6228 0.5 44.5 8.18244 44.5 17.5Z" stroke="black" shape-rendering="crispEdges"/>
</g>
<line x1="24.5" y1="6" x2="24.5" y2="29" stroke="black"/>
<line x1="24.5" y1="6" x2="24.5" y2="29" stroke="black"/>
<line x1="24.5" y1="6" x2="24.5" y2="29" stroke="black"/>
<line x1="14" y1="18.5" x2="35" y2="18.5" stroke="black"/>
<line x1="14" y1="18.5" x2="35" y2="18.5" stroke="black"/>
<line x1="14" y1="18.5" x2="35" y2="18.5" stroke="black"/>
<defs>
<filter id="filter0_d_0_1" x="0" y="0" width="49" height="43" filterUnits="userSpaceOnUse" color-interpolation-filters="sRGB">
<feFlood flood-opacity="0" result="BackgroundImageFix"/>
<feColorMatrix in="SourceAlpha" type="matrix" values="0 0 0 0 0 0 0 0 0 0 0 0 0 0 0 0 0 0 127 0" result="hardAlpha"/>
<feOffset dy="4"/>
<feGaussianBlur stdDeviation="2"/>
<feComposite in2="hardAlpha" operator="out"/>
<feColorMatrix type="matrix" values="0 0 0 0 0 0 0 0 0 0 0 0 0 0 0 0 0 0 0.25 0"/>
<feBlend mode="normal" in2="BackgroundImageFix" result="effect1_dropShadow_0_1"/>
<feBlend mode="normal" in="SourceGraphic" in2="effect1_dropShadow_0_1" result="shape"/>
</filter>
<filter id="filter1_d_0_1" x="0" y="0" width="49" height="43" filterUnits="userSpaceOnUse" color-interpolation-filters="sRGB">
<feFlood flood-opacity="0" result="BackgroundImageFix"/>
<feColorMatrix in="SourceAlpha" type="matrix" values="0 0 0 0 0 0 0 0 0 0 0 0 0 0 0 0 0 0 127 0" result="hardAlpha"/>
<feOffset dy="4"/>
<feGaussianBlur stdDeviation="2"/>
<feComposite in2="hardAlpha" operator="out"/>
<feColorMatrix type="matrix" values="0 0 0 0 0 0 0 0 0 0 0 0 0 0 0 0 0 0 0.25 0"/>
<feBlend mode="normal" in2="BackgroundImageFix" result="effect1_dropShadow_0_1"/>
<feBlend mode="normal" in="SourceGraphic" in2="effect1_dropShadow_0_1" result="shape"/>
</filter>
<filter id="filter2_d_0_1" x="0" y="0" width="49" height="43" filterUnits="userSpaceOnUse" color-interpolation-filters="sRGB">
<feFlood flood-opacity="0" result="BackgroundImageFix"/>
<feColorMatrix in="SourceAlpha" type="matrix" values="0 0 0 0 0 0 0 0 0 0 0 0 0 0 0 0 0 0 127 0" result="hardAlpha"/>
<feOffset dy="4"/>
<feGaussianBlur stdDeviation="2"/>
<feComposite in2="hardAlpha" operator="out"/>
<feColorMatrix type="matrix" values="0 0 0 0 0 0 0 0 0 0 0 0 0 0 0 0 0 0 0.25 0"/>
<feBlend mode="normal" in2="BackgroundImageFix" result="effect1_dropShadow_0_1"/>
<feBlend mode="normal" in="SourceGraphic" in2="effect1_dropShadow_0_1" result="shape"/>
</filter>
<radialGradient id="paint0_radial_0_1" cx="0" cy="0" r="1" gradientUnits="userSpaceOnUse" gradientTransform="translate(7.15385 -4.53173e-06) rotate(48.3735) scale(61.7217 72.871)">
<stop stop-color="#302B2B" stop-opacity="0.1"/>
<stop offset="0.980897" stop-color="white" stop-opacity="0.83"/>
<stop offset="1" stop-color="#CCC1C1"/>
</radialGradient>
<radialGradient id="paint1_radial_0_1" cx="0" cy="0" r="1" gradientUnits="userSpaceOnUse" gradientTransform="translate(7.15385 -4.53173e-06) rotate(48.3735) scale(61.7217 72.871)">
<stop stop-color="#302B2B" stop-opacity="0.1"/>
<stop offset="0.980897" stop-color="white" stop-opacity="0.83"/>
<stop offset="1" stop-color="#CCC1C1"/>
</radialGradient>
<radialGradient id="paint2_radial_0_1" cx="0" cy="0" r="1" gradientUnits="userSpaceOnUse" gradientTransform="translate(7.15385 -4.53173e-06) rotate(48.3735) scale(61.7217 72.871)">
<stop stop-color="#302B2B" stop-opacity="0.1"/>
<stop offset="0.980897" stop-color="white" stop-opacity="0.83"/>
<stop offset="1" stop-color="#CCC1C1"/>
</radialGradient>
</defs>
</svg>
